<svg xmlns="http://www.w3.org/2000/svg" viewBox="0 0 128 128">
  <path fill="#000" d="M126.67 98.44c-4.56 1.16-7.38.05-9.91-3.75-5.68-8.51-11.95-16.63-18-25.09a73.42 73.42 0 01-1.44-2.16c-.08-.13-.16-.25-.25-.38-4.5-6.84-9.22-13.41-13.73-20.23-1.09-1.66-2.17-3.33-3.26-5.05-3.94-6.18-7.85-12.39-11.89-18.5-1.36-2.05-2.73-4.1-4.11-6.12-.67-.98-1.35-1.95-2.02-2.93l-.97-1.4a21.57 21.57 0 00-2.16-2.82c-2.95-3.28-6.79-4.93-11.49-4.86-9.54.14-17.46 6.12-19.46 14.66a19.34 19.34 0 00-.85 5.33c-.14 5.99 2.01 11.33 6.14 15.84 4.13 4.51 9.64 7.39 15.64 8.54a45.26 45.26 0 0018.64-.05c.85-.21 1.7-.42 2.54-.65 1.68-.46 3.33-.96 4.97-1.5 3.28-1.08 6.5-2.28 9.68-3.56.95-.38 1.9-.78 2.84-1.18 1.88-.8 3.74-1.64 5.58-2.5a67.86 67.86 0 01-1.44 2.16c-.08.13-.16.25-.25.38z"/>
  <path fill="#000" d="M1.33 61.74c.72-3.61 1.2-7.29 1.87-10.89 2.31-12.52 8.52-23.23 18.13-31.31C29.9 12.65 39.63 8.2 50.4 6.16c15.9-3.01 31.28-1.63 45.37 6.83 2.66 1.6 5.22 3.39 7.7 5.28 16.58 12.67 25.21 29.48 25.2 49.55-.01 23.54-14.12 43.52-36.78 51.64-14.25 5.11-28.82 5.11-43.46.04C27.46 113.04 14.32 97.34 7.88 75.98c-1.97-6.51-3.05-13.26-4.03-20.09z"/>
</svg>
