<svg xmlns="http://www.w3.org/2000/svg" viewBox="0 0 256 256"><path fill="#F05032" d="M251.7 123.7L132.3 4.3c-5.7-5.7-15-5.7-20.7 0l-25.7 25.7 34.2 34.2c6.1-2.1 13.1-0.7 18 4.2 4.9 4.9 6.3 11.9 4.2 18l32.9 32.9c6.1-2.1 13.1-0.7 18 4.2 6.6 6.6 6.6 17.3 0 23.9-6.6 6.6-17.3 6.6-23.9 0-5.1-5.1-6.3-12.7-3.7-19l-31.7-31.7v84.2c1.6 0.6 3.1 1.5 4.4 2.8 6.6 6.6 6.6 17.3 0 23.9-6.6 6.6-17.3 6.6-23.9 0-6.6-6.6-6.6-17.3 0-23.9 4.1-4.1 9.8-5.7 15.2-4.7V70.7l-30.7-30.7-74.3 74.3c-5.7 5.7-5.7 15 0 20.7l119.4 119.4c5.7 5.7 15 5.7 20.7 0l119.4-119.4c5.7-5.7 5.7-15 0-20.7z"/></svg>
