<svg xmlns="http://www.w3.org/2000/svg" viewBox="0 0 256 256"><path fill="#181717" d="M128 0C57.3 0 0 57.3 0 128c0 56.6 36.7 104.6 87.5 121.6 6.4 1.2 8.7-2.8 8.7-6.1 0-3-.1-11-0.2-21.6-35.6 7.7-43.1-17.2-43.1-17.2-5.8-14.7-14.1-18.6-14.1-18.6-11.5-7.9 0.9-7.7 0.9-7.7 12.7 0.9 19.4 13 19.4 13 11.3 19.4 29.6 13.8 36.8 10.6 1.1-8.2 4.4-13.8 8-17-28.4-3.2-58.3-14.2-58.3-63.2 0-14 5-25.4 13.1-34.3-1.3-3.2-5.7-16.1 1.2-33.6 0 0 10.7-3.4 35 13.1 10.2-2.8 21.1-4.2 32-4.2s21.8 1.4 32 4.2c24.3-16.5 35-13.1 35-13.1 6.9 17.5 2.5 30.4 1.2 33.6 8.1 8.9 13.1 20.3 13.1 34.3 0 49.1-29.9 60-58.4 63.2 4.5 3.9 8.5 11.6 8.5 23.4 0 16.9-0.2 30.5-0.2 34.7 0 3.4 2.3 7.4 8.8 6.1C219.3 232.6 256 184.6 256 128 256 57.3 198.7 0 128 0z"/></svg>
