<svg xmlns="http://www.w3.org/2000/svg" viewBox="0 0 256 512"><path fill="#47A248" d="M127.9 0c-2.7 0-5.1 1.6-6.2 4.1-1.1 2.5-27.2 61.7-27.2 120.2 0 58.5 25.7 117.7 26.8 120.2 1.1 2.5 3.5 4.1 6.2 4.1s5.1-1.6 6.2-4.1c1.1-2.5 26.8-61.7 26.8-120.2 0-58.5-26.1-117.7-27.2-120.2C133 1.6 130.6 0 127.9 0zm0 240c-2.2 0-4.2-1.3-5.1-3.3-1-2-24.8-56.2-24.8-112.4 0-56.2 23.8-110.4 24.8-112.4 1-2 2.9-3.3 5.1-3.3s4.2 1.3 5.1 3.3c1 2 24.8 56.2 24.8 112.4 0 56.2-23.8 110.4-24.8 112.4-1 2-2.9 3.3-5.1 3.3z"/></svg>
