<svg xmlns="http://www.w3.org/2000/svg" viewBox="0 0 128 128">
  <path fill="#439934" d="M88.038 42.812c1.605 4.643 2.761 9.383 3.141 14.296.472 6.095.256 12.147-1.029 18.142-.035.165-.109.32-.164.48-.403.001-.814-.049-1.208.012-3.329.523-6.655 1.065-9.981 1.604-3.438.557-6.881 1.092-10.313 1.687-1.216.21-2.721-.041-3.212 1.641-.014.046-.154.054-.235.08l.166-10.051c-.057-8.084-.113-16.168-.169-24.252l1.602-.275c2.62-.429 5.24-.864 7.862-1.289 3.129-.507 6.261-1.001 9.394-1.485.467-.072.934-.137 1.402-.207.419-.048.835-.079 1.252-.106.43-.041.854-.073 1.283-.098z"/>
  <path fill="#45A538" d="M61.729 110.054c-1.69-1.453-3.439-2.842-5.059-4.37-8.717-8.222-15.093-17.899-18.233-29.566-.865-3.211-1.442-6.474-1.627-9.792-.13-2.322-.318-4.665-.154-6.975.437-6.144 1.325-12.229 3.127-18.147l.099-.138c.175.233.427.439.516.702 1.759 5.18 3.505 10.364 5.242 15.551 5.458 16.3 10.909 32.604 16.358 48.908.107.318.384.579.583.866l-.852 2.161z"/>
  <path fill="#46A037" d="M88.038 42.812c-1.384.207-2.768.414-4.151.622-2.862.429-5.725.859-8.587 1.289-3.003.451-6.006.903-9.009 1.354-.299.045-.598.089-.897.134-.21-.057-.24-.2-.166-.4 2.389-6.472 4.777-12.944 7.166-19.416.309-.839.618-1.678.927-2.518.19-.516.38-1.031.57-1.547.057-.155.329-.484.423-.226.276.757.095 1.569.383 2.32 1.391 3.6 2.782 7.2 4.174 10.8 1.536 3.928 3.073 7.856 4.609 11.784.394 1.001.789 2.003 1.183 3.004.206.522.412 1.044.618 1.566.113.29-.068.444-.243.234z"/>
  <path fill="#83CD29" d="M65.036 80.753c.081-.026.222-.034.235-.08.491-1.682 1.996-1.431 3.212-1.641 3.432-.595 6.875-1.13 10.313-1.687 3.326-.539 6.652-1.081 9.981-1.604.394-.061.805-.011 1.208-.012-.622 2.22-1.112 4.488-1.901 6.647-.896 2.449-1.98 4.839-3.131 7.182a49.142 49.142 0 01-6.353 9.763c-1.919 2.308-4.058 4.441-6.202 6.548-1.185 1.165-2.582 2.114-3.882 3.161l-.337.018c-.094-.463-.271-.909-.325-1.385-.087-.773-.017-1.569-.142-2.33-.39-2.369-.986-4.702-1.447-7.067-.476-2.438-.79-4.918-1.184-7.378-.38-2.378-.753-4.757-1.169-7.127-.099-.565-.239-1.123-.337-1.693-.131-.761-.24-1.527-.421-2.277-.104-.432-.48-.772-.598-1.222-.04-.155.024-.156.1-.146z"/>
</svg>
