<svg xmlns="http://www.w3.org/2000/svg" viewBox="0 0 128 128">
  <path fill="#00618A" d="M2.001 90.458h4.108V74.235l6.36 14.143c.75 1.712 1.777 2.317 3.792 2.317s3.003-.605 3.753-2.317l6.36-14.143v16.223h4.108V72.954c0-1.58-.632-2.345-1.936-2.739-3.121-.394-5.175.131-6.163 3.424l-5.391 12.299-5.391-12.299c-.988-3.293-3.042-3.818-6.163-3.424-1.304.394-1.936 1.159-1.936 2.739v17.504zm35.899 0h4.108V72.954c0-1.58-.632-2.345-1.936-2.739-3.121-.394-5.175.131-6.163 3.424l-5.391 12.299-5.391-12.299c-.988-3.293-3.042-3.818-6.163-3.424-1.304.394-1.936 1.159-1.936 2.739v17.504h4.108V74.235l6.36 14.143c.75 1.712 1.777 2.317 3.792 2.317s3.003-.605 3.753-2.317l6.36-14.143v16.223zm22.94-2.317c-2.344 0-4.033-1.896-4.033-4.474 0-2.578 1.689-4.474 4.033-4.474s4.033 1.896 4.033 4.474c0 2.578-1.689 4.474-4.033 4.474zm0-12.084c-4.108 0-7.488 3.293-7.488 7.61 0 4.317 3.38 7.61 7.488 7.61s7.488-3.293 7.488-7.61c0-4.317-3.38-7.61-7.488-7.61zm22.94 14.401h4.108V72.954c0-1.58-.632-2.345-1.936-2.739-3.121-.394-5.175.131-6.163 3.424l-5.391 12.299-5.391-12.299c-.988-3.293-3.042-3.818-6.163-3.424-1.304.394-1.936 1.159-1.936 2.739v17.504h4.108V74.235l6.36 14.143c.75 1.712 1.777 2.317 3.792 2.317s3.003-.605 3.753-2.317l6.36-14.143v16.223z"/>
  <path fill="#E48E00" d="M96.026 73.665c-2.578 0-3.903.605-4.653 1.027v15.781h4.108V78.372c.356-.25.934-.5 1.777-.5 1.304 0 2.131.605 2.131 2.054v10.532h4.108V79.399c0-3.156-1.689-5.734-5.471-5.734z"/>
  <path fill="#00618A" d="M33.665 45.067c2.939-.039 5.302.315 7.262.986 6.553 2.248 9.968 6.824 9.968 13.648 0 6.824-3.415 11.4-9.968 13.648-1.96.671-4.323 1.025-7.262.986H26v-29.268h7.665zm-.315 25.334c2.031.039 3.598-.236 4.892-.827 4.105-1.88 6.137-5.273 6.137-10.17s-2.032-8.29-6.137-10.17c-1.294-.591-2.861-.866-4.892-.827H30.133v21.994H33.35z"/>
  <path fill="#E48E00" d="M61.778 45.067c8.642 0 12.454 5.536 12.454 14.476 0 8.94-3.812 14.476-12.454 14.476s-12.454-5.536-12.454-14.476c0-8.94 3.812-14.476 12.454-14.476zm0 25.018c5.536 0 8.365-3.694 8.365-10.542 0-6.848-2.829-10.542-8.365-10.542s-8.365 3.694-8.365 10.542c0 6.848 2.829 10.542 8.365 10.542z"/>
</svg>
