<svg xmlns="http://www.w3.org/2000/svg" viewBox="0 0 128 128">
  <path fill="#8CC84B" d="M112.771 30.334L68.674 4.729c-2.781-1.584-6.402-1.584-9.205 0L14.901 30.334C12.031 31.985 10.14 35.088 10.14 38.407v51.142c0 3.319 1.891 6.423 4.762 8.083l11.274 6.659c6.152 3.037 8.362 3.037 11.274 3.037 9.254 0 14.577-5.639 14.577-15.426V54.207c0-.649-.533-1.203-1.205-1.203h-5.24c-.659 0-1.168.554-1.168 1.203v37.695c0 2.886-3.097 5.748-8.362 3.319l-11.274-6.548c-.533-.298-.859-.848-.859-1.415V38.407c0-.567.326-1.07.859-1.383L68.674 11.166c.326-.177.652-.248.956-.248.326 0 .652.071.956.248l44.097 25.858c.533.313.859.816.859 1.383v51.142c0 .567-.326 1.117-.859 1.415L68.674 116.834c-.326.177-.652.248-.956.248-.326 0-.652-.071-.956-.248l-11.21-6.659c-.652-.37-1.581-.927-2.549-.927-.652 0-1.736.185-2.549.927l-11.274 6.659c-.326.177-.652.248-.956.248-.326 0-.652-.071-.956-.248L16.845 96.965c-2.871-1.66-4.762-4.764-4.762-8.083V38.407c0-3.319 1.891-6.422 4.762-8.073L60.942 4.729c2.803-1.584 6.424-1.584 9.227 0l44.097 25.605c2.871 1.651 4.762 4.754 4.762 8.073v51.142c0 3.319-1.891 6.423-4.762 8.083l-44.097 25.605c-2.803 1.584-6.424 1.584-9.227 0L16.845 96.965c-2.871-1.66-4.762-4.764-4.762-8.083V38.407c0-3.319 1.891-6.422 4.762-8.073z"/>
</svg>
