<svg xmlns="http://www.w3.org/2000/svg" viewBox="0 0 128 128">
  <path fill="#6181B6" d="M64 33.039C30.26 33.039 2.906 46.901 2.906 64S30.26 94.961 64 94.961 125.094 81.099 125.094 64 97.74 33.039 64 33.039zM48.103 70.032c-1.458 1.364-3.077 1.927-4.86 2.507-1.783.581-4.052.461-6.811.461h-6.253l-1.733 10h-7.301c-.365 0-.693-.215-.844-.558-.151-.343-.059-.74.238-1.022l18.474-17.222a9.28 9.28 0 011.377-1.177c.463-.315.994-.562 1.604-.809.609-.247 1.313-.506 2.09-.777 1.554-.542 2.91-.1006 4.057.658.762.505 1.36 1.166 1.652 2.02.292.854.226 1.748-.69 2.919zm30.781-5.367h-6.253l-1.733 10h-7.301c-.365 0-.693-.215-.844-.558-.151-.343-.059-.74.238-1.022l18.474-17.222a9.28 9.28 0 011.377-1.177c.463-.315.994-.562 1.604-.809.609-.247 1.313-.506 2.09-.777 1.554-.542 2.91-.1006 4.057.658.762.505 1.36 1.166 1.652 2.02.292.854.226 1.748-.69 2.919-1.458 1.364-3.077 1.927-4.86 2.507-1.783.581-4.052.461-6.811.461zm22.29.066h-7.11l1.221-7.044h-9.699l-1.233 7.044h-6.253l-1.733 10h-7.301c-.365 0-.693-.215-.844-.558-.151-.343-.059-.74.238-1.022l18.474-17.222a9.28 9.28 0 011.377-1.177c.463-.315.994-.562 1.604-.809.609-.247 1.313-.506 2.09-.777 1.554-.542 2.91-.1006 4.057.658.762.505 1.36 1.166 1.652 2.02.292.854.226 1.748-.69 2.919-1.458 1.364-3.077 1.927-4.86 2.507-1.783.581-4.052.461-6.811.461z"/>
</svg>
