<svg xmlns="http://www.w3.org/2000/svg" viewBox="0 0 256 256"><path fill="#306998" d="M127.9 0c-2.7 0-5.1 1.6-6.2 4.1-1.1 2.5-27.2 61.7-27.2 120.2 0 58.5 25.7 117.7 26.8 120.2 1.1 2.5 3.5 4.1 6.2 4.1s5.1-1.6 6.2-4.1c1.1-2.5 26.8-61.7 26.8-120.2 0-58.5-26.1-117.7-27.2-120.2C133 1.6 130.6 0 127.9 0z"/><path fill="#FFD43B" d="M128 256c-2.7 0-5.1-1.6-6.2-4.1-1.1-2.5-27.2-61.7-27.2-120.2 0-58.5 25.7-117.7 26.8-120.2 1.1-2.5 3.5-4.1 6.2-4.1s5.1 1.6 6.2 4.1c1.1 2.5 26.8 61.7 26.8 120.2 0 58.5-26.1 117.7-27.2 120.2-1.1 2.5-3.5 4.1-6.2 4.1z"/></svg>
